<svg width="60" height="60" viewBox="0 0 60 60" fill="none" xmlns="http://www.w3.org/2000/svg">
<circle cx="30" cy="30" r="30" fill="#D8EDF7"/>
<path d="M28.4028 37.4651H31.6028C31.7443 37.4651 31.8799 37.4089 31.98 37.3089C32.08 37.2088 32.1362 37.0732 32.1362 36.9317C32.1362 36.7903 32.08 36.6547 31.98 36.5546C31.8799 36.4546 31.7443 36.3984 31.6028 36.3984H28.4028C28.1083 36.3984 27.8695 36.6372 27.8695 36.9317C27.8695 37.2263 28.1083 37.4651 28.4028 37.4651ZM27.8695 40.1317H32.1362C32.2777 40.1317 32.4133 40.0755 32.5133 39.9755C32.6133 39.8755 32.6695 39.7398 32.6695 39.5984C32.6695 39.4569 32.6133 39.3213 32.5133 39.2213C32.4133 39.1213 32.2777 39.0651 32.1362 39.0651H27.8695C27.7281 39.0651 27.5924 39.1213 27.4924 39.2213C27.3924 39.3213 27.3362 39.4569 27.3362 39.5984C27.3362 39.6684 27.35 39.7378 27.3768 39.8025C27.4036 39.8672 27.4429 39.926 27.4924 39.9755C27.5419 40.025 27.6007 40.0643 27.6654 40.0911C27.7301 40.1179 27.7995 40.1317 27.8695 40.1317ZM33.2028 41.7317H26.8028C26.6614 41.7317 26.5258 41.7879 26.4257 41.8879C26.3257 41.9879 26.2695 42.1236 26.2695 42.265C26.2695 42.4064 26.3257 42.5421 26.4257 42.6421C26.5258 42.7421 26.6614 42.7983 26.8028 42.7983H33.2028C33.4974 42.7983 33.7362 42.5596 33.7362 42.265C33.7362 41.9704 33.4974 41.7317 33.2028 41.7317Z" fill="#3184AE"/>
<path d="M17.2034 27.3333H18.2701V36.9333C18.2701 37.8169 18.9865 38.5333 19.8701 38.5333V39.6C19.8715 39.9297 19.9747 40.251 20.1656 40.5198C20.3566 40.7887 20.6259 40.992 20.9368 41.1019V44.4C20.9368 45.2836 21.6532 46 22.5368 46H37.4701C38.3537 46 39.0701 45.2837 39.0701 44.4V41.1019C39.381 40.992 39.6503 40.7887 39.8413 40.5198C40.0322 40.251 40.1354 39.9297 40.1368 39.6V38.5333C41.0204 38.5333 41.7368 37.8169 41.7368 36.9333V27.3333H42.8034C43.3925 27.3333 43.8701 26.8558 43.8701 26.2666V22.5333C43.8701 21.9442 43.3925 21.4666 42.8034 21.4666H41.7367V15.6C41.7367 14.7164 41.0203 14 40.1367 14H19.8701C18.9865 14 18.2701 14.7164 18.2701 15.6V21.4667H17.2034C16.6143 21.4667 16.1367 21.9442 16.1367 22.5334V26.2667C16.1367 26.8558 16.6143 27.3333 17.2034 27.3333ZM38.5367 18.8H26.2701C26.1287 18.8 25.993 18.8562 25.893 18.9562C25.793 19.0562 25.7368 19.1919 25.7368 19.3333C25.7368 19.4748 25.793 19.6104 25.893 19.7104C25.993 19.8104 26.1287 19.8666 26.2701 19.8666H38.5368V21.4666H21.4701V19.8666H24.1368C24.2782 19.8666 24.4139 19.8104 24.5139 19.7104C24.6139 19.6104 24.6701 19.4748 24.6701 19.3333C24.6701 19.1919 24.6139 19.0562 24.5139 18.9562C24.4139 18.8562 24.2782 18.8 24.1368 18.8H21.4701V17.2H38.5368V18.8H38.5367ZM30.0034 25.2C30.1448 25.2 30.2805 25.2562 30.3805 25.3562C30.4805 25.4562 30.5367 25.5919 30.5367 25.7333C30.5367 25.8748 30.4805 26.0104 30.3805 26.1104C30.2805 26.2104 30.1448 26.2666 30.0034 26.2666C29.862 26.2666 29.7263 26.2104 29.6263 26.1104C29.5263 26.0104 29.4701 25.8748 29.4701 25.7333C29.4701 25.5919 29.5263 25.4562 29.6263 25.3562C29.7263 25.2562 29.862 25.2 30.0034 25.2ZM21.4701 22.5333H29.4701V24.2314C28.7354 24.4912 28.2947 25.2424 28.4265 26.0105C28.5582 26.7786 29.2242 27.3399 30.0034 27.3399C30.7827 27.3399 31.4486 26.7786 31.5803 26.0105C31.7121 25.2424 31.2714 24.4912 30.5367 24.2314V22.5333H38.5367V35.3333H36.8386C36.9018 35.1625 36.935 34.9821 36.9367 34.8V30.5333C36.9367 29.6496 36.2203 28.9333 35.3367 28.9333H31.07C30.6751 28.9347 30.2949 29.083 30.0033 29.3493C29.7118 29.083 29.3315 28.9347 28.9367 28.9333H24.67C23.7863 28.9333 23.07 29.6497 23.07 30.5333V34.8C23.0717 34.9821 23.1049 35.1625 23.1681 35.3333H21.47V22.5333H21.4701ZM33.9138 35.3333C33.8054 35.021 33.6022 34.7504 33.3325 34.5592C33.0629 34.368 32.7403 34.2657 32.4098 34.2666H30.5367V30.5333C30.5367 30.3919 30.5929 30.2562 30.6929 30.1562C30.7929 30.0562 30.9286 30 31.07 30H31.6033V32.4C31.6034 32.5363 31.6383 32.6704 31.7048 32.7894C31.7712 32.9085 31.867 33.0086 31.983 33.0802C32.0989 33.1519 32.2313 33.1927 32.3675 33.1988C32.5037 33.2049 32.6392 33.1761 32.7612 33.1152L33.2033 32.8944L33.6454 33.1152C33.7674 33.1761 33.9029 33.2049 34.0391 33.1988C34.1753 33.1927 34.3076 33.1519 34.4236 33.0802C34.5396 33.0086 34.6354 32.9085 34.7018 32.7894C34.7683 32.6704 34.8032 32.5363 34.8033 32.4V30H35.3366C35.478 30 35.6137 30.0562 35.7137 30.1562C35.8137 30.2562 35.8699 30.3919 35.8699 30.5333V34.8C35.8699 34.9414 35.8137 35.0771 35.7137 35.1771C35.6137 35.2771 35.478 35.3333 35.3366 35.3333H33.9138ZM33.7367 30V31.968L33.5623 31.8811C33.4511 31.8253 33.3284 31.7963 33.2039 31.7963C33.0795 31.7963 32.9568 31.8253 32.8455 31.8811L32.6701 31.968V30H33.7367ZM26.4455 31.8806L26.2701 31.968V30H27.3368V31.968L27.1624 31.8811C27.0512 31.8252 26.9285 31.7961 26.804 31.796C26.6796 31.796 26.5568 31.8249 26.4455 31.8806ZM24.1367 34.8V30.5333C24.1367 30.3919 24.1929 30.2562 24.2929 30.1562C24.3929 30.0562 24.5286 30 24.67 30H25.2033V32.4C25.2034 32.5363 25.2383 32.6704 25.3048 32.7894C25.3712 32.9085 25.467 33.0086 25.583 33.0802C25.6989 33.1519 25.8313 33.1927 25.9675 33.1988C26.1037 33.2049 26.2392 33.1761 26.3612 33.1152L26.8033 32.8944L27.2454 33.1152C27.3673 33.1762 27.5029 33.205 27.6391 33.1989C27.7753 33.1928 27.9076 33.1519 28.0236 33.0803C28.1396 33.0086 28.2354 32.9085 28.3018 32.7895C28.3683 32.6704 28.4032 32.5363 28.4032 32.4V30H28.9365C29.078 30 29.2136 30.0562 29.3136 30.1562C29.4137 30.2562 29.4698 30.3919 29.4698 30.5333V34.2666H27.5968C27.2662 34.2657 26.9436 34.368 26.674 34.5592C26.4044 34.7504 26.2012 35.021 26.0928 35.3333H24.6698C24.5284 35.3333 24.3928 35.2771 24.2929 35.177C24.1929 35.077 24.1367 34.9414 24.1367 34.8ZM24.6461 40.1333H21.4701C21.3287 40.1333 21.193 40.0771 21.093 39.9771C20.993 39.8771 20.9368 39.7414 20.9368 39.6V38.5333H25.1261L24.6461 40.1333ZM22.0034 44.4V41.2H24.3261L23.2983 44.6267C23.2699 44.7264 23.2563 44.8297 23.2578 44.9334H22.5367C22.3953 44.9333 22.2596 44.8771 22.1596 44.7771C22.0596 44.6771 22.0034 44.5414 22.0034 44.4ZM34.2701 44.9333H24.3202L27.0861 35.7136C27.119 35.6036 27.1865 35.5073 27.2786 35.4388C27.3706 35.3703 27.4823 35.3333 27.597 35.3333H32.4098C32.5246 35.3333 32.6363 35.3703 32.7283 35.4388C32.8203 35.5073 32.8878 35.6037 32.9208 35.7136L35.6867 44.9333H34.2701ZM38.0034 44.4C38.0034 44.5414 37.9472 44.6771 37.8472 44.7771C37.7472 44.8771 37.6115 44.9333 37.4701 44.9333H36.749C36.7506 44.8296 36.7369 44.7263 36.7085 44.6266L35.6807 41.2H38.0034V44.4ZM39.0701 39.6C39.0701 39.7414 39.0139 39.8771 38.9139 39.9771C38.8139 40.0771 38.6782 40.1333 38.5368 40.1333H35.3608L34.8808 38.5333H39.0701V39.6ZM42.8034 22.5333V26.2666H41.7367V22.5333H42.8034ZM19.3367 15.6C19.3367 15.4586 19.3929 15.3229 19.4929 15.2229C19.5929 15.1229 19.7286 15.0667 19.87 15.0667H40.1367C40.2782 15.0667 40.4138 15.1229 40.5138 15.2229C40.6138 15.3229 40.67 15.4586 40.67 15.6V36.9333C40.67 37.0748 40.6138 37.2104 40.5138 37.3104C40.4138 37.4104 40.2782 37.4666 40.1367 37.4666H34.5602L34.2402 36.3999H39.07C39.2115 36.3999 39.3471 36.3438 39.4471 36.2437C39.5472 36.1437 39.6033 36.0081 39.6033 35.8666V16.6666C39.6033 16.5252 39.5472 16.3895 39.4471 16.2895C39.3471 16.1895 39.2115 16.1333 39.07 16.1333H20.9367C20.7953 16.1333 20.6596 16.1895 20.5596 16.2895C20.4596 16.3895 20.4034 16.5252 20.4034 16.6666V35.8666C20.4034 36.0081 20.4596 36.1437 20.5596 36.2437C20.6596 36.3438 20.7953 36.3999 20.9367 36.3999H25.7666L25.4466 37.4666H19.8701C19.7287 37.4666 19.593 37.4104 19.493 37.3104C19.393 37.2104 19.3368 37.0748 19.3368 36.9333L19.3367 15.6ZM17.2034 22.5333H18.2701V26.2666H17.2034V22.5333Z" fill="#3184AE"/>
</svg>
