<svg width="45" height="45" viewBox="0 0 45 45" fill="none" xmlns="http://www.w3.org/2000/svg">
<rect width="44.8333" height="44.8333" rx="22.4167" fill="#3DA5D9"/>
<path fill-rule="evenodd" clip-rule="evenodd" d="M12.1155 12.1155C13.6375 10.5935 15.926 10 18.9167 10H25.9167C28.9073 10 31.1959 10.5935 32.7178 12.1155C34.2398 13.6375 34.8333 15.926 34.8333 18.9167V25.9167C34.8333 28.9073 34.2398 31.1959 32.7178 32.7178C31.1959 34.2398 28.9073 34.8333 25.9167 34.8333H18.9167C15.926 34.8333 13.6375 34.2398 12.1155 32.7178C10.5935 31.1959 10 28.9073 10 25.9167V18.9167C10 15.926 10.5935 13.6375 12.1155 12.1155ZM13.1762 13.1762C12.0731 14.2792 11.5 16.074 11.5 18.9167V25.9167C11.5 28.7594 12.0731 30.5541 13.1762 31.6572C14.2792 32.7602 16.074 33.3333 18.9167 33.3333H25.9167C28.7594 33.3333 30.5541 32.7602 31.6572 31.6572C32.7602 30.5541 33.3333 28.7594 33.3333 25.9167V18.9167C33.3333 16.074 32.7602 14.2792 31.6572 13.1762C30.5541 12.0731 28.7594 11.5 25.9167 11.5H18.9167C16.074 11.5 14.2792 12.0731 13.1762 13.1762Z" fill="white"/>
<path fill-rule="evenodd" clip-rule="evenodd" d="M22.4167 19.0833C20.5757 19.0833 19.0833 20.5757 19.0833 22.4167C19.0833 24.2576 20.5757 25.75 22.4167 25.75C24.2576 25.75 25.75 24.2576 25.75 22.4167C25.75 20.5757 24.2576 19.0833 22.4167 19.0833ZM17.5833 22.4167C17.5833 19.7473 19.7473 17.5833 22.4167 17.5833C25.086 17.5833 27.25 19.7473 27.25 22.4167C27.25 25.086 25.086 27.25 22.4167 27.25C19.7473 27.25 17.5833 25.086 17.5833 22.4167Z" fill="white"/>
<path fill-rule="evenodd" clip-rule="evenodd" d="M27.9921 16.5833C27.9921 16.031 28.4399 15.5833 28.9921 15.5833H29.0056C29.5579 15.5833 30.0056 16.031 30.0056 16.5833C30.0056 17.1356 29.5579 17.5833 29.0056 17.5833H28.9921C28.4399 17.5833 27.9921 17.1356 27.9921 16.5833Z" fill="white"/>
</svg>
