<svg width="46" height="46" viewBox="0 0 46 46" fill="none" xmlns="http://www.w3.org/2000/svg">
<rect width="46" height="45.7903" rx="22.8951" fill="#3DA5D9"/>
<path d="M10.3968 35.7903H17.1289V18.0873H10.3968V35.7903ZM11.9202 19.6107H15.6054V34.2668H11.9202V19.6107ZM13.7628 10C11.688 10 10 11.688 10 13.7628C10 15.8377 11.688 17.5257 13.7628 17.5257C15.8377 17.5257 17.5257 15.8377 17.5257 13.7628C17.5257 11.688 15.8377 10 13.7628 10ZM11.5234 13.7628C11.5234 12.528 12.528 11.5234 13.7628 11.5234C14.9977 11.5234 16.0023 12.528 16.0023 13.7628C16.0023 14.9977 14.9977 16.0023 13.7628 16.0023C12.528 16.0023 11.5234 14.9976 11.5234 13.7628ZM35.9837 23.6462C35.7441 20.2004 32.8699 17.5451 29.3065 17.5451C27.7127 17.5451 26.2081 18.0993 25.0226 19.0825V18.0872H18.5718V35.7902H25.304V26.108C25.304 25.0168 26.1917 24.1291 27.2829 24.1291C28.3741 24.1291 29.2618 25.0168 29.2618 26.1085L29.2683 35.7902H36V23.6625L35.9837 23.6462ZM23.7806 34.2668H20.0953V19.6107H23.4991V21.7865L24.7181 21.7935L24.9446 21.4419C25.9018 19.9558 27.5324 19.0686 29.3065 19.0686C32.1419 19.0686 34.4122 21.232 34.475 23.9936L34.4766 34.2668H30.7908L30.7853 26.108C30.7853 24.1768 29.2141 22.6056 27.2829 22.6056C25.3517 22.6056 23.7806 24.1768 23.7806 26.108V34.2668Z" fill="white"/>
</svg>
