<svg width="60" height="60" viewBox="0 0 60 60" fill="none" xmlns="http://www.w3.org/2000/svg">
<circle cx="30" cy="30" r="30" fill="#D8EDF7"/>
<path d="M43.8667 28.3948H43.3333V25.1948C43.3333 23.7244 42.1371 22.5281 40.6667 22.5281H38V21.4615C38 20.2849 37.0432 19.3281 35.8667 19.3281H17.2C16.0235 19.3281 15.0667 20.2849 15.0667 21.4615V33.7281C14.4784 33.7281 14 34.2065 14 34.7948V40.1281C14 40.7164 14.4784 41.1948 15.0667 41.1948H26.8C27.3883 41.1948 27.8667 40.7164 27.8667 40.1281V37.9948H34.8C34.8 40.0535 36.4747 41.7281 38.5333 41.7281C40.592 41.7281 42.2667 40.0535 42.2667 37.9948H44.9333C45.5216 37.9948 46 37.5164 46 36.9281V30.5281C46 29.3516 45.0432 28.3948 43.8667 28.3948ZM42.2667 25.1948V28.3948H40.6667C40.3728 28.3948 40.1333 28.1553 40.1333 27.8615V23.5948H40.6667C41.5488 23.5948 42.2667 24.3127 42.2667 25.1948ZM15.0667 34.7948H18.2667V36.9281C18.2667 37.0696 18.3229 37.2052 18.4229 37.3053C18.5229 37.4053 18.6586 37.4615 18.8 37.4615C18.9414 37.4615 19.0771 37.4053 19.1771 37.3053C19.2771 37.2052 19.3333 37.0696 19.3333 36.9281V34.7948H20.4V40.1281H15.0667V34.7948ZM22 31.0615C22.1414 31.0615 22.2771 31.0053 22.3771 30.9052C22.4771 30.8052 22.5333 30.6696 22.5333 30.5281V28.3948H23.6V33.7281H18.2667V28.3948H21.4667V30.5281C21.4667 30.6696 21.5229 30.8052 21.6229 30.9052C21.7229 31.0053 21.8586 31.0615 22 31.0615ZM26.8 40.1281H21.4667V34.7948H24.6667V36.9281C24.6667 37.0696 24.7229 37.2052 24.8229 37.3053C24.9229 37.4053 25.0586 37.4615 25.2 37.4615C25.3414 37.4615 25.4771 37.4053 25.5771 37.3053C25.6771 37.2052 25.7333 37.0696 25.7333 36.9281V34.7948H26.8V40.1281ZM27.8667 36.9281V34.7948C27.8667 34.2065 27.3883 33.7281 26.8 33.7281H24.6667V28.3948C24.6667 27.8065 24.1883 27.3281 23.6 27.3281H18.2667C17.6784 27.3281 17.2 27.8065 17.2 28.3948V33.7281H16.1333V21.4615C16.1333 20.8732 16.6117 20.3948 17.2 20.3948H35.8667C36.4549 20.3948 36.9333 20.8732 36.9333 21.4615V24.1281H28.9333C28.7919 24.1281 28.6562 24.1843 28.5562 24.2843C28.4562 24.3844 28.4 24.52 28.4 24.6615C28.4 24.8029 28.4562 24.9386 28.5562 25.0386C28.6562 25.1386 28.7919 25.1948 28.9333 25.1948H36.9333V26.2615H32.1333C31.9919 26.2615 31.8562 26.3176 31.7562 26.4177C31.6562 26.5177 31.6 26.6533 31.6 26.7948C31.6 26.9362 31.6562 27.0719 31.7562 27.1719C31.8562 27.2719 31.9919 27.3281 32.1333 27.3281H36.9333V28.3948H34.8C34.6586 28.3948 34.5229 28.451 34.4229 28.551C34.3229 28.651 34.2667 28.7867 34.2667 28.9281C34.2667 29.0696 34.3229 29.2052 34.4229 29.3052C34.5229 29.4053 34.6586 29.4615 34.8 29.4615H36.9333V34.6268C36.4617 34.8514 36.0423 35.1722 35.702 35.5685C35.3617 35.9648 35.108 36.428 34.9573 36.9281H27.8667ZM38.5333 40.6615C37.0629 40.6615 35.8667 39.4652 35.8667 37.9948C35.8667 36.5244 37.0629 35.3281 38.5333 35.3281C40.0037 35.3281 41.2 36.5244 41.2 37.9948C41.2 39.4652 40.0037 40.6615 38.5333 40.6615ZM42.1093 36.9281C41.6491 35.3879 40.2208 34.2615 38.5333 34.2615C38.352 34.2615 38.1749 34.2791 38 34.3041V23.5948H39.0667V27.8615C39.0667 28.7436 39.7845 29.4615 40.6667 29.4615H43.8667C44.4549 29.4615 44.9333 29.9399 44.9333 30.5281V34.7948H43.3333C43.1919 34.7948 43.0562 34.851 42.9562 34.951C42.8562 35.051 42.8 35.1867 42.8 35.3281C42.8 35.4696 42.8562 35.6052 42.9562 35.7052C43.0562 35.8053 43.1919 35.8615 43.3333 35.8615H44.9333V36.9281H42.1093Z" fill="#3184AE"/>
<path d="M38.5336 36.3958C37.6515 36.3958 36.9336 37.1137 36.9336 37.9958C36.9336 38.878 37.6515 39.5958 38.5336 39.5958C39.4157 39.5958 40.1336 38.878 40.1336 37.9958C40.1336 37.1137 39.4157 36.3958 38.5336 36.3958ZM38.5336 38.5292C38.2397 38.5292 38.0003 38.2897 38.0003 37.9958C38.0003 37.702 38.2397 37.4625 38.5336 37.4625C38.8275 37.4625 39.0669 37.702 39.0669 37.9958C39.0669 38.2897 38.8275 38.5292 38.5336 38.5292ZM40.6669 31.0625H39.6003C39.4588 31.0625 39.3232 31.1187 39.2231 31.2187C39.1231 31.3187 39.0669 31.4544 39.0669 31.5958C39.0669 31.7373 39.1231 31.8729 39.2231 31.973C39.3232 32.073 39.4588 32.1292 39.6003 32.1292H40.6669C40.8084 32.1292 40.944 32.073 41.0441 31.973C41.1441 31.8729 41.2003 31.7373 41.2003 31.5958C41.2003 31.4544 41.1441 31.3187 41.0441 31.2187C40.944 31.1187 40.8084 31.0625 40.6669 31.0625Z" fill="#3184AE"/>
</svg>
