<svg width="60" height="60" viewBox="0 0 60 60" fill="none" xmlns="http://www.w3.org/2000/svg">
<circle cx="30" cy="30" r="30" fill="#D8EDF7"/>
<g clip-path="url(#clip0_1742_31818)">
<path d="M20.875 21.875C20.53 21.875 20.25 22.155 20.25 22.5C20.25 22.845 20.53 23.125 20.875 23.125C21.22 23.125 21.5 22.845 21.5 22.5C21.5 22.155 21.22 21.875 20.875 21.875Z" fill="#3184AE"/>
<path d="M43.4328 27.2201L42.5285 25.4114C42.2087 24.7719 41.5662 24.3748 40.8514 24.3748H35.6241V19.9999C35.6241 18.9661 34.7831 18.125 33.7492 18.125H15.8749C14.8411 18.125 14 18.9661 14 19.9999V36.2493C14 37.2831 14.8411 38.1242 15.8749 38.1242H17.7499C17.7499 39.0838 18.1127 39.9601 18.7077 40.6241H14.625C14.2798 40.6241 14 40.9039 14 41.2491C14 41.5942 14.2798 41.8741 14.625 41.8741H45.3738C45.7189 41.8741 45.9988 41.5942 45.9988 41.2491C45.9988 40.9039 45.7189 40.6241 45.3738 40.6241H43.7909C44.386 39.9601 44.7488 39.0838 44.7488 38.1242C44.7488 38.0886 44.7471 38.0531 44.7461 38.0176C45.4749 37.7603 45.9987 37.065 45.9987 36.2493V32.7944C45.9987 32.0651 46.1431 32.7459 43.4328 27.2201ZM42.4876 28.1246L44.3625 31.8744H38.124V28.1246H42.4876ZM15.2499 33.1244H16.4999V34.3743H15.2499V33.1244ZM21.4997 40.6241C20.1213 40.6241 18.9998 39.5026 18.9998 38.1242C18.9998 37.9539 19.0167 37.7864 19.0504 37.6234C19.2855 36.4651 20.3156 35.6243 21.4997 35.6243C22.6838 35.6243 23.7139 36.465 23.9489 37.6234L23.9495 37.6261C23.9827 37.7863 23.9996 37.9539 23.9996 38.1242C23.9996 39.5026 22.8781 40.6241 21.4997 40.6241ZM21.4997 34.3743C19.8984 34.3743 18.4852 35.4001 17.9642 36.8742H15.8749C15.5303 36.8742 15.2499 36.5938 15.2499 36.2492V35.6242H17.1249C17.4701 35.6242 17.7499 35.3443 17.7499 34.9992V32.4993C17.7499 32.1542 17.4701 31.8743 17.1249 31.8743H15.2499V19.9999C15.2499 19.6553 15.5303 19.3749 15.8749 19.3749H33.7492C34.0938 19.3749 34.3742 19.6553 34.3742 19.9999V36.8743H25.0349C24.5129 35.3994 23.1003 34.3743 21.4997 34.3743ZM24.2916 40.6241C24.8868 39.9601 25.2495 39.0838 25.2495 38.1242H37.249C37.249 39.0838 37.6118 39.9601 38.2069 40.6241H24.2916ZM40.9989 40.6241C39.6204 40.6241 38.499 39.5026 38.499 38.1242C38.499 37.9539 38.5159 37.7864 38.5496 37.6234C38.7847 36.4651 39.8148 35.6243 40.9989 35.6243C42.183 35.6243 43.2131 36.465 43.4481 37.6234L43.4487 37.6261C43.4819 37.7863 43.4988 37.9539 43.4988 38.1242C43.4988 39.5026 42.3773 40.6241 40.9989 40.6241ZM44.7488 36.2493C44.7488 36.4571 44.6463 36.6411 44.4897 36.7548C43.9353 35.3443 42.5559 34.3744 40.9989 34.3744C39.3976 34.3744 37.9844 35.4002 37.4634 36.8743H35.6241V25.6247H40.8514C40.9676 25.6243 41.0815 25.6565 41.1803 25.7176C41.2791 25.7787 41.3588 25.8663 41.4104 25.9704L41.8626 26.8746H37.4991C37.1539 26.8746 36.8741 27.1545 36.8741 27.4996V32.4994C36.8741 32.8446 37.1539 33.1244 37.4991 33.1244H44.7488V36.2493Z" fill="#3184AE"/>
<path d="M31.2496 21.875H23.3749C23.0297 21.875 22.7499 22.1549 22.7499 22.5C22.7499 22.8451 23.0297 23.125 23.3749 23.125H31.2496C31.5948 23.125 31.8746 22.8451 31.8746 22.5C31.8746 22.1549 31.5947 21.875 31.2496 21.875ZM31.2496 24.3749H25.8748C25.5296 24.3749 25.2498 24.6548 25.2498 24.9999C25.2498 25.345 25.5296 25.6249 25.8748 25.6249H31.2496C31.5948 25.6249 31.8746 25.345 31.8746 24.9999C31.8746 24.6548 31.5947 24.3749 31.2496 24.3749ZM40.9991 36.8744C40.3099 36.8744 39.7492 37.4351 39.7492 38.1243C39.7492 38.8136 40.3099 39.3743 40.9991 39.3743C41.6884 39.3743 42.2491 38.8135 42.2491 38.1243C42.2491 37.4351 41.6884 36.8744 40.9991 36.8744ZM21.4999 36.8744C20.8107 36.8744 20.25 37.4351 20.25 38.1243C20.25 38.8136 20.8108 39.3743 21.4999 39.3743C22.1892 39.3743 22.7499 38.8135 22.7499 38.1243C22.7499 37.4351 22.1892 36.8744 21.4999 36.8744Z" fill="#3184AE"/>
</g>
<defs>
<clipPath id="clip0_1742_31818">
<rect width="32" height="32" fill="white" transform="translate(14 14)"/>
</clipPath>
</defs>
</svg>
