<svg width="202" height="201" viewBox="0 0 202 201" fill="none" xmlns="http://www.w3.org/2000/svg">
<path d="M148.926 161.396C141.397 156.468 139.487 147.033 139.568 138.51C139.568 137.087 139.387 135.592 140.042 134.329C140.697 133.067 142.277 132.175 143.58 132.746C144.661 133.216 145.16 134.43 145.783 135.435C146.62 136.773 147.817 137.848 149.236 138.538C150.165 138.985 151.306 139.246 152.203 138.731C153.429 138.024 153.533 136.319 153.489 134.912C153.409 132.281 153.327 129.646 153.244 127.009C153.2 125.594 153.159 124.151 153.573 122.8C153.988 121.449 154.94 120.175 156.295 119.769C157.65 119.363 159.35 120.095 159.672 121.47C159.742 122.054 159.771 122.642 159.756 123.23C159.813 123.817 160.106 124.46 160.673 124.609C161.24 124.758 161.814 124.348 162.233 123.922C163.676 122.458 164.645 120.597 165.525 118.744C166.405 116.891 167.282 115.001 168.584 113.409C169.887 111.817 171.716 110.543 173.762 110.378C175.808 110.214 178.031 111.415 178.586 113.389C179.141 115.363 178.023 117.409 176.781 119.066C174.937 121.514 172.746 123.681 170.277 125.498C169.797 125.776 169.418 126.198 169.191 126.704C168.906 127.652 169.834 128.569 170.799 128.854C171.877 129.18 173.03 129.043 174.152 129.148C175.273 129.252 176.496 129.706 176.942 130.756C177.565 132.187 176.375 133.731 175.197 134.752C172.826 136.803 170.122 138.435 167.201 139.576C166.156 139.978 165.059 140.343 164.226 141.091C163.394 141.839 162.912 143.125 163.451 144.11C163.989 145.095 165.312 145.38 166.413 145.155C167.515 144.93 168.484 144.311 169.525 143.893C171.479 143.113 174.023 143.186 175.326 144.834C176.182 145.919 176.291 147.455 175.905 148.781C175.454 150.091 174.744 151.297 173.818 152.327C170.776 156.111 166.788 159.024 162.257 160.769C157.73 162.441 153.509 162.964 148.93 161.436" fill="#F0F0F0"/>
<path d="M176.48 111.5C176.48 111.5 176.436 111.548 176.343 111.637L175.941 112.019C175.571 112.352 175.029 112.847 174.333 113.506C172.407 115.353 170.624 117.343 168.999 119.46C167.961 120.794 166.888 122.306 165.783 123.946C164.677 125.586 163.483 127.355 162.309 129.256C161.068 131.235 159.937 133.28 158.92 135.383C158.394 136.48 157.928 137.622 157.453 138.788C156.979 139.954 156.504 141.135 156.018 142.329C154.171 146.814 152.578 151.398 151.246 156.062C150.177 159.872 149.474 163.776 149.148 167.72C148.935 170.38 148.957 173.055 149.216 175.711C149.317 176.648 149.409 177.38 149.49 177.87C149.526 178.107 149.55 178.296 149.57 178.429C149.59 178.562 149.594 178.622 149.594 178.622C149.594 178.622 149.357 177.601 149.132 175.72C148.844 173.059 148.798 170.377 148.995 167.708C149.304 163.75 149.994 159.831 151.057 156.005C152.377 151.331 153.967 146.736 155.817 142.245C156.305 141.052 156.783 139.872 157.252 138.703C157.727 137.542 158.197 136.388 158.727 135.29C159.748 133.181 160.886 131.13 162.136 129.148C163.318 127.246 164.508 125.486 165.634 123.841C166.759 122.197 167.845 120.698 168.89 119.363C170.53 117.25 172.336 115.27 174.289 113.442C174.976 112.794 175.531 112.308 175.897 111.982L176.327 111.617C176.428 111.536 176.48 111.5 176.48 111.5Z" fill="#E0E0E0"/>
<path d="M158.769 135.275C158.703 135.078 158.655 134.877 158.624 134.672C158.544 134.27 158.44 133.715 158.327 133.015C158.094 131.608 157.837 129.663 157.555 127.512C157.274 125.361 156.988 123.424 156.723 122.029C156.594 121.329 156.482 120.766 156.401 120.377C156.347 120.178 156.312 119.975 156.297 119.77C156.376 119.959 156.438 120.156 156.482 120.356C156.59 120.758 156.723 121.301 156.884 121.997C157.185 123.388 157.503 125.333 157.78 127.484C158.058 129.635 158.299 131.544 158.488 132.991C158.58 133.667 158.657 134.225 158.717 134.656C158.755 134.86 158.772 135.067 158.769 135.275Z" fill="#E0E0E0"/>
<path d="M177.105 131.441C177.044 131.463 176.981 131.475 176.916 131.477L176.373 131.537C175.899 131.586 175.216 131.654 174.363 131.77C172.679 131.984 170.363 132.369 167.831 132.9C165.298 133.431 163.027 134.026 161.399 134.508C160.595 134.741 159.928 134.946 159.473 135.087L158.951 135.244C158.89 135.266 158.826 135.281 158.762 135.288C158.762 135.288 158.818 135.252 158.935 135.204L159.445 135.007C159.891 134.842 160.543 134.605 161.355 134.363C162.963 133.853 165.25 133.242 167.787 132.699C170.323 132.156 172.651 131.807 174.343 131.63C175.191 131.533 175.879 131.485 176.353 131.461L176.9 131.441C176.968 131.431 177.037 131.431 177.105 131.441Z" fill="#E0E0E0"/>
<path d="M151.247 155.662C151.199 155.592 151.157 155.518 151.123 155.441C151.038 155.272 150.93 155.039 150.793 154.79C150.512 154.223 150.126 153.391 149.659 152.378C148.723 150.315 147.517 147.425 146.23 144.221C144.944 141.017 143.758 138.123 142.862 136.044L141.784 133.592C141.668 133.319 141.571 133.098 141.495 132.925C141.456 132.848 141.426 132.767 141.406 132.684C141.459 132.751 141.502 132.825 141.535 132.905L141.861 133.556C142.142 134.123 142.532 134.955 142.998 135.968C143.935 138.03 145.137 140.921 146.427 144.125C147.718 147.328 148.896 150.223 149.796 152.297C150.242 153.318 150.6 154.15 150.869 154.753C150.99 155.027 151.086 155.248 151.159 155.421C151.198 155.497 151.227 155.578 151.247 155.662Z" fill="#E0E0E0"/>
<path d="M175.523 147.297C175.447 147.34 175.366 147.373 175.282 147.397L174.574 147.643L171.973 148.539C169.774 149.295 166.747 150.376 163.419 151.582C160.09 152.788 157.051 153.849 154.84 154.569C153.735 154.931 152.83 155.212 152.215 155.397L151.496 155.606C151.413 155.638 151.326 155.658 151.238 155.667C151.317 155.626 151.399 155.592 151.483 155.566L152.187 155.317L154.792 154.424C156.987 153.669 160.018 152.583 163.347 151.381C166.675 150.179 169.714 149.114 171.925 148.394C173.031 148.033 173.935 147.751 174.55 147.566L175.27 147.357C175.351 147.326 175.436 147.306 175.523 147.297Z" fill="#E0E0E0"/>
<path d="M49.0176 99.7385L55.8355 119.658H86.7011L86.4719 118.633L73.9938 118.247L68.2412 99.7305L49.0176 99.7385Z" fill="#E6E6E6"/>
<path d="M62.6964 109.092C62.8974 109.896 62.5477 110.7 61.9125 110.877C61.2774 111.053 60.598 110.523 60.397 109.707C60.196 108.891 60.5417 108.099 61.1769 107.918C61.812 107.737 62.4914 108.276 62.6964 109.092Z" fill="white"/>
<path d="M117.598 142.835L127.853 178.043H129.087L121.216 142.715L117.598 142.835Z" fill="#EBEBEB"/>
<path d="M98.7559 143.004L90.8164 178.022H92.2234L102.852 142.992L98.7559 143.004Z" fill="#EBEBEB"/>
<path d="M108.047 142.195L109.265 178.022H110.929L111.661 142.336L108.047 142.195Z" fill="#EBEBEB"/>
<path d="M98.3864 157.185L122.201 156.438L122.362 158.906L96.6016 159.891L98.3864 157.185Z" fill="#EBEBEB"/>
<path d="M98.7447 142.992L98.3789 144.805H102.319L102.813 142.992H98.7447Z" fill="#E0E0E0"/>
<path d="M108.041 142.297L108.125 144.805H111.619L111.663 142.735L108.041 142.297Z" fill="#E0E0E0"/>
<path d="M108.543 156.863L108.632 159.428L106.783 159.496L106.18 156.936L108.543 156.863Z" fill="#E0E0E0"/>
<path d="M111.369 156.73L111.312 159.335L112.76 159.279L113.093 156.73H111.369Z" fill="#E0E0E0"/>
<path d="M117.443 142.297L117.97 144.11H121.528L121.138 142.349L117.443 142.297Z" fill="#E0E0E0"/>
<path d="M90.8584 140.522C94.2473 138.862 107.935 139.754 107.935 139.754C107.935 139.754 104.068 91.7793 109.065 91.3974C114.062 91.0155 125.382 87.4136 127.42 94.6697C129.567 102.308 126.669 143.054 123.802 142.66C117.274 141.76 97.1336 144.092 91.0715 142.66C89.5117 142.315 90.8584 140.522 90.8584 140.522Z" fill="#F0F0F0"/>
<path d="M123.107 95.4961C123.131 95.4961 123.227 95.6167 123.392 95.8981C123.476 96.0308 123.565 96.1996 123.669 96.4006C123.774 96.6016 123.886 96.8428 124.003 97.1121C124.636 98.6616 125.035 100.297 125.185 101.964C125.4 104.416 125.467 106.878 125.386 109.337C125.338 112.111 125.169 115.158 124.92 118.342C124.67 121.526 124.361 124.561 124.075 127.31C123.79 130.06 123.509 132.536 123.123 134.619C122.835 136.258 122.417 137.871 121.872 139.443C121.701 140.028 121.453 140.589 121.137 141.111C121.254 140.516 121.414 139.93 121.615 139.358C122.052 137.773 122.392 136.162 122.632 134.534C122.954 132.476 123.183 130.004 123.436 127.25C123.689 124.496 123.975 121.465 124.24 118.289C124.505 115.114 124.678 112.083 124.759 109.321C124.87 106.884 124.854 104.443 124.71 102.008C124.605 100.375 124.289 98.7614 123.77 97.2086C123.372 96.083 123.062 95.5242 123.107 95.4961Z" fill="#E0E0E0"/>
<path d="M120.557 141.028C120.517 141.229 117.405 140.739 113.546 140.429C109.687 140.12 106.535 140.088 106.527 139.883C106.519 139.677 109.695 139.408 113.603 139.734C117.51 140.059 120.597 140.851 120.557 141.028Z" fill="#E0E0E0"/>
<path d="M142.061 119.359H32.6328V122.945H142.061V119.359Z" fill="#E6E6E6"/>
<path d="M41.1874 122.945L32.6328 177.991L36.9101 178.068L51.5952 122.945H41.1874Z" fill="#EBEBEB"/>
<path d="M134.093 122.352L139.094 178.037H135.11L124.317 124.659L123.754 120.695L134.093 122.352Z" fill="#EBEBEB"/>
<path d="M124.072 122.945L124.47 125.422L134.335 125.052L134.146 122.945H124.072Z" fill="#E0E0E0"/>
<path d="M41.1872 122.945L40.7852 125.482L50.9799 125.197L51.5949 122.945H41.1872Z" fill="#E0E0E0"/>
<path d="M36.6099 119.862V115.569L38.7727 115.09L36.6099 113.752V109.691H59.6807V112.128H60.9872C60.7742 112.369 61.3892 112.662 61.1279 112.763C60.6616 112.936 59.5199 113.205 59.5199 113.205L59.8053 114.897L58.5109 115.187L60.2395 116.393L60.5289 119.609L36.5898 120.099" fill="#E0E0E0"/>
<path d="M34.5059 119.862V115.569L36.6767 115.09L34.5139 113.752V109.691H57.5807V112.128H58.8831C58.6701 112.369 59.3052 112.662 59.0238 112.763C58.5575 112.936 57.4158 113.205 57.4158 113.205L57.7053 114.897L56.4068 115.187L58.1354 116.393L58.4249 119.609L34.5059 120.083" fill="#F0F0F0"/>
<path d="M142.477 113.774C141.944 113.379 141.286 113.19 140.624 113.243C140.624 112.885 140.624 112.664 140.624 112.664H130.506C130.506 112.664 130.188 119.337 135.298 119.574C137.585 119.679 138.896 118.654 139.643 117.363C140.019 117.453 140.403 117.5 140.789 117.504C141.359 117.53 141.923 117.372 142.397 117.054C142.653 116.852 142.856 116.59 142.989 116.292C143.121 115.993 143.179 115.667 143.157 115.341C143.169 115.046 143.114 114.751 142.997 114.48C142.879 114.208 142.702 113.967 142.477 113.774ZM141.786 116.254C141.356 116.576 140.58 116.527 140.077 116.439C140.333 115.731 140.499 114.993 140.572 114.244C141.014 114.189 141.46 114.292 141.834 114.533C141.943 114.636 142.027 114.761 142.081 114.9C142.134 115.039 142.156 115.189 142.144 115.337C142.16 115.504 142.135 115.673 142.073 115.829C142.011 115.985 141.912 116.124 141.786 116.234V116.254Z" fill="#F0F0F0"/>
<path d="M70.7501 67.1081L65.701 62.2318H39.0645V46.2845L76.6354 45.4805V61.9142H70.0426L70.7501 67.1081ZM39.4665 61.8298H65.8618L70.1953 66.0146L69.5803 61.5122H76.2334V45.9066L39.4665 46.6784V61.8298Z" fill="#E0E0E0"/>
<path d="M56.574 50.3008H44.0195V51.7721H56.574V50.3008Z" fill="#E0E0E0"/>
<path d="M71.9987 53.668H44.0195V55.1393H71.9987V53.668Z" fill="#E0E0E0"/>
<path d="M71.9987 56.5859H44.0195V58.0573H71.9987V56.5859Z" fill="#E0E0E0"/>
<path d="M57.2227 14.4065L57.9865 35.1296H89.2741L118.033 25.4896V12.8789L57.2227 14.4065Z" fill="#E0E0E0"/>
<path d="M89.4316 22.8979L89.6849 39.8904H116.273C116.273 39.8904 118.842 51.7052 118.854 51.058C118.866 50.4107 122.102 39.7296 122.102 39.7296L156.413 39.408V22.0898L89.4316 22.8979Z" fill="#F0F0F0"/>
<path d="M149.203 28.6484H96.625V30.3127H149.203V28.6484Z" fill="white"/>
<path d="M149.203 32.5703H96.625V34.2346H149.203V32.5703Z" fill="white"/>
<path d="M158.688 178.12C158.688 178.176 128.63 178.225 91.5539 178.225C54.4775 178.225 24.4199 178.176 24.4199 178.12C24.4199 178.064 54.4694 178.016 91.5539 178.016C128.638 178.016 158.688 178.06 158.688 178.12Z" fill="#263238"/>
<path d="M57.7527 124.577C55.4734 124.943 54.4563 127.741 54.6573 130.036C54.8583 132.332 55.799 134.583 55.5457 136.87C55.2241 139.781 53.0252 142.241 52.7679 145.16C52.4664 148.601 54.8985 151.652 55.6261 155.029C55.9799 156.673 55.9317 158.409 56.5427 159.973C57.0639 161.305 58.0308 162.416 59.2788 163.115C60.5267 163.814 61.9785 164.059 63.3867 163.807C64.7949 163.556 66.0724 162.824 67.0015 161.737C67.9307 160.649 68.4539 159.273 68.4821 157.843C68.5344 155.201 66.9022 152.713 67.1032 150.076C67.248 148.13 68.3896 146.285 68.1444 144.343C67.855 142.04 65.7324 140.404 64.9646 138.205C64.1968 136.006 64.9325 133.582 64.6752 131.27C64.2089 127.126 61.9094 124.239 57.7527 124.573" fill="#FA9701"/>
<path d="M46.1254 144.645C45.7234 148.484 47.4359 153.003 49.4138 156.303C51.4117 159.641 54.4226 162.255 58.0085 163.764C58.4105 163.933 58.909 164.074 59.2467 163.8C59.3673 163.669 59.4578 163.512 59.5119 163.342C59.5661 163.172 59.5826 162.992 59.5603 162.815C59.5899 158.739 58.2965 154.762 55.874 151.483C53.4516 148.204 50.0309 145.799 46.1254 144.629" fill="#FA9701"/>
<path opacity="0.2" d="M46.1254 144.645C45.7234 148.484 47.4359 153.003 49.4138 156.303C51.4117 159.641 54.4226 162.255 58.0085 163.764C58.4105 163.933 58.909 164.074 59.2467 163.8C59.3673 163.669 59.4578 163.512 59.5119 163.342C59.5661 163.172 59.5826 162.992 59.5603 162.815C59.5899 158.739 58.2965 154.762 55.874 151.483C53.4516 148.204 50.0309 145.799 46.1254 144.629" fill="white"/>
<path d="M62.8528 171.807C62.8096 171.74 62.7732 171.668 62.7442 171.594C62.6719 171.429 62.5834 171.22 62.4709 170.967C62.2417 170.416 61.896 169.628 61.4538 168.659C60.3101 166.136 59.0382 163.672 57.6428 161.279C56.2409 158.888 54.7194 156.569 53.0842 154.332C52.453 153.472 51.9344 152.784 51.5726 152.322L51.1706 151.775C51.0782 151.651 51.0299 151.582 51.038 151.574C51.0978 151.627 51.153 151.685 51.2028 151.747C51.3194 151.888 51.4681 152.061 51.649 152.27C52.051 152.724 52.5736 153.399 53.2168 154.248C54.8954 156.462 56.4405 158.775 57.8438 161.174C59.2393 163.572 60.493 166.05 61.5985 168.595C62.0206 169.576 62.3422 170.376 62.5513 170.935C62.6437 171.196 62.7241 171.409 62.7844 171.578C62.8168 171.651 62.8398 171.728 62.8528 171.807Z" fill="#263238"/>
<path d="M60.3914 135.195C60.417 135.317 60.4317 135.441 60.4356 135.565C60.4356 135.826 60.4799 136.176 60.512 136.622C60.5723 137.559 60.6567 138.886 60.7613 140.514C60.9703 143.798 61.2597 148.337 61.6135 153.346C61.9673 158.355 62.313 162.893 62.5662 166.177C62.6909 167.785 62.7914 169.124 62.8637 170.065C62.8959 170.507 62.92 170.869 62.9361 171.122C62.9468 171.245 62.9468 171.369 62.9361 171.492C62.9064 171.372 62.8876 171.249 62.8798 171.126C62.8517 170.865 62.8155 170.515 62.7672 170.073L62.4014 166.19C62.108 162.909 61.7341 158.375 61.3844 153.362C61.0346 148.349 60.7653 143.81 60.5804 140.522C60.504 138.894 60.4437 137.567 60.3995 136.626C60.3834 136.179 60.3713 135.825 60.3633 135.565C60.3647 135.441 60.3741 135.318 60.3914 135.195Z" fill="#263238"/>
<path d="M56.8516 166.328H66.4674V173.387C66.4679 173.994 66.349 174.594 66.1173 175.155C65.8856 175.715 65.5457 176.224 65.1171 176.653C64.6885 177.082 64.1796 177.422 63.6194 177.655C63.0593 177.887 62.4588 178.006 61.8524 178.006C60.6705 178.007 59.5334 177.554 58.6755 176.741C57.8176 175.928 57.3043 174.817 57.2415 173.636L56.8516 166.328Z" fill="#263238"/>
<path d="M160.695 60.1524C160.193 63.0543 158.834 65.7392 156.791 67.8611C154.749 69.983 152.119 71.4446 149.238 72.0576C146.358 72.6705 143.36 72.4067 140.631 71.3C137.901 70.1934 135.566 68.2947 133.926 65.8488L126.939 66.9302L131.671 60.3534C131.271 58.231 131.342 56.0465 131.878 53.9544C132.415 51.8623 133.405 49.9137 134.778 48.2462C136.151 46.5787 137.873 45.233 139.823 44.3043C141.773 43.3755 143.903 42.8864 146.063 42.8714C148.223 42.8565 150.359 43.3161 152.322 44.2177C154.285 45.1193 156.025 46.441 157.421 48.0894C158.817 49.7377 159.834 51.6724 160.399 53.7569C160.965 55.8413 161.066 58.0246 160.695 60.1524Z" fill="#3DA5D9"/>
<path d="M126.77 68.6509C126.051 68.4339 124.76 72.2971 124.559 71.3082C124.358 70.3192 126.682 66.7615 125.922 66.5646C124.933 66.3073 123.663 70.3795 123.53 70.7132C123.398 71.0469 122.907 70.87 123.04 70.5725C123.237 70.1464 125.187 65.6038 124.218 65.3465C123.679 65.2018 123.51 66.1907 123.51 66.1907C123.51 66.1907 121.999 70.5725 121.544 70.4358C121.09 70.2991 121.886 67.6902 122.216 66.8178C122.545 65.9455 122.272 65.4711 121.778 65.6359C121.44 65.7525 120.359 68.3575 120.053 69.2137C119.747 70.07 118.939 72.4297 118.389 70.9464C117.838 69.463 116.849 68.5344 116.407 68.454C116.304 68.4497 116.202 68.4775 116.116 68.5335C116.029 68.5894 115.962 68.6709 115.924 68.7665C115.885 68.8622 115.878 68.9674 115.901 69.0676C115.925 69.1678 115.98 69.2582 116.057 69.3263C116.397 69.7424 116.677 70.2038 116.889 70.6971C117.075 71.0858 117.195 71.503 117.243 71.9313C117.348 72.7902 117.368 73.6573 117.303 74.5201V74.7613L112.536 86.6043L107.225 74.9463C105.525 69.2941 98.5018 69.061 98.5018 69.061L91.5391 68.3414C89.0226 67.3726 86.2126 67.5374 84.6489 68.4298C83.6678 69.0113 82.8212 69.7942 82.1649 70.7269C81.5087 71.6596 81.0578 72.7209 80.8419 73.8408C79.2339 81.728 73.6542 109.973 73.2039 122.342C72.9192 123.688 72.7072 125.049 72.5688 126.418C72.4321 128.561 72.625 128.577 72.8743 128.549C73.5537 128.477 73.2763 124.786 73.7828 125.542C74.2893 126.298 73.618 130.101 74.3215 129.996C75.2702 129.847 74.8682 125.988 74.8682 125.659C74.8682 125.329 75.3345 125.309 75.3265 125.606C75.3265 126.032 75.2943 130.527 76.1988 130.402C76.6973 130.334 76.4923 129.445 76.4923 129.445C76.4923 129.445 76.1988 125.24 76.629 125.192C77.0591 125.144 77.3204 127.604 77.3445 128.448C77.3686 129.293 77.7747 129.598 78.1485 129.285C78.3897 129.068 78.3696 126.503 78.3254 125.667C78.2812 124.83 78.1123 122.571 79.1013 123.62C80.0902 124.67 81.2479 125.108 81.6459 125.007C81.7337 124.974 81.809 124.914 81.8614 124.836C81.9138 124.758 81.9407 124.666 81.9385 124.572C81.9363 124.478 81.9051 124.387 81.8491 124.312C81.7931 124.236 81.7151 124.18 81.6258 124.151C81.1937 123.922 80.7948 123.635 80.4399 123.299C80.1538 123.043 79.9109 122.743 79.7203 122.41C79.66 122.302 79.6118 122.201 79.5555 122.101C79.7083 119.749 81.0912 99.5446 84.6529 85.6998L85.3202 83.9752C86.0197 86.7892 85.6016 92.5458 84.1142 95.0342C81.6741 99.1587 81.867 109.293 81.867 109.293L104.323 110.149C104.323 110.149 104.15 106.423 103.953 101.663L103.454 87.6655L103.511 84.9842L103.615 84.7028C104.701 86.4354 106.059 88.6585 107.736 91.4926C113.32 100.911 118.031 89.6997 118.031 89.6997L122.803 76.2005C124.018 74.5068 125.141 72.7489 126.167 70.9343C127.225 68.8278 127.036 68.7434 126.77 68.6509Z" fill="#E5BAAB"/>
<path d="M92.2078 176.397V172.779L85.402 172.734L85.3457 178.053L85.7678 178.081C87.6451 178.198 95.3233 178.539 96.5816 178.169C97.9846 177.735 92.2078 176.397 92.2078 176.397Z" fill="#3DA5D9"/>
<path d="M96.7398 177.824C96.7398 177.888 94.1911 177.94 91.0515 177.94C87.9118 177.94 85.3672 177.888 85.3672 177.824C85.3672 177.759 87.9118 177.707 91.0515 177.707C94.1911 177.707 96.7398 177.759 96.7398 177.824Z" fill="#263238"/>
<path d="M92.3263 177.145C92.27 177.113 92.3263 176.916 92.467 176.743C92.6077 176.57 92.7886 176.458 92.8328 176.502C92.877 176.546 92.7845 176.711 92.6519 176.884C92.5192 177.057 92.3825 177.173 92.3263 177.145Z" fill="#263238"/>
<path d="M92.7636 177.381C92.7033 177.357 92.7355 177.14 92.8681 176.915C93.0008 176.689 93.1817 176.553 93.2299 176.593C93.2782 176.633 93.1937 176.822 93.0691 177.031C92.9445 177.24 92.8239 177.405 92.7636 177.381Z" fill="#263238"/>
<path d="M87.4215 177.795C87.3934 177.815 87.2929 177.718 87.1442 177.557C86.9626 177.346 86.7606 177.154 86.5412 176.983C86.3258 176.823 86.0745 176.72 85.8095 176.681C85.6045 176.653 85.4718 176.681 85.4598 176.649C85.4477 176.617 85.5723 176.532 85.8135 176.516C86.1249 176.507 86.4301 176.605 86.6778 176.794C86.9171 176.975 87.1202 177.2 87.2768 177.457C87.3934 177.646 87.4457 177.774 87.4215 177.795Z" fill="#263238"/>
<path d="M92.349 176.485C92.3811 176.537 92.2645 176.666 92.0716 176.734C91.8786 176.802 91.7017 176.778 91.6937 176.714C91.6857 176.649 91.8223 176.577 91.9912 176.517C92.16 176.456 92.3168 176.408 92.349 176.485Z" fill="#263238"/>
<path d="M92.2435 176.105C92.2435 176.169 92.0666 176.225 91.8415 176.229C91.6163 176.233 91.4395 176.181 91.4395 176.117C91.4395 176.052 91.6284 175.996 91.8415 175.996C92.0545 175.996 92.2354 176.04 92.2435 176.105Z" fill="#263238"/>
<path d="M99.3906 175.11L100.468 171.636L93.9797 169.582L92.3516 174.643L92.7536 174.796C94.5143 175.463 101.742 178.06 103.057 178.08C104.508 178.084 99.3906 175.11 99.3906 175.11Z" fill="#3DA5D9"/>
<path d="M103.294 177.81C103.294 177.874 100.829 177.171 97.8305 176.238C94.8316 175.305 92.4156 174.505 92.4357 174.445C92.4558 174.385 94.8999 175.088 97.8988 176.017C100.898 176.945 103.314 177.749 103.294 177.81Z" fill="#263238"/>
<path d="M99.2835 175.859C99.2393 175.811 99.3438 175.642 99.5408 175.501C99.7378 175.361 99.9428 175.325 99.9428 175.381C99.9428 175.437 99.8342 175.566 99.6533 175.694C99.4724 175.823 99.3277 175.903 99.2835 175.859Z" fill="#263238"/>
<path d="M99.6293 176.219C99.577 176.179 99.6735 175.978 99.8665 175.817C100.059 175.656 100.268 175.564 100.305 175.616C100.341 175.668 100.204 175.825 100.023 175.99C99.8424 176.155 99.6775 176.259 99.6293 176.219Z" fill="#263238"/>
<path d="M94.4008 175.029C94.3686 175.029 94.3003 174.921 94.2038 174.72C94.0934 174.466 93.9587 174.224 93.8018 173.996C93.6436 173.779 93.4335 173.605 93.1907 173.489C93.0058 173.401 92.8691 173.389 92.8691 173.353C92.8691 173.317 93.0098 173.276 93.247 173.333C93.5463 173.419 93.8081 173.603 93.9907 173.855C94.1629 174.098 94.2895 174.371 94.3646 174.659C94.4168 174.872 94.4289 175.021 94.4008 175.029Z" fill="#263238"/>
<path d="M99.5007 175.211C99.5007 175.271 99.364 175.36 99.159 175.368C98.954 175.376 98.7972 175.299 98.8092 175.235C98.8213 175.171 98.97 175.143 99.1509 175.134C99.3318 175.126 99.4886 175.147 99.5007 175.211Z" fill="#263238"/>
<path d="M99.51 174.843C99.51 174.903 99.305 174.903 99.108 174.843C98.911 174.783 98.706 174.674 98.7502 174.614C98.7944 174.554 98.9633 174.558 99.1723 174.614C99.3814 174.67 99.5221 174.779 99.51 174.843Z" fill="#263238"/>
<path d="M98.3695 69.5099C98.265 68.7541 98.671 65.6105 98.671 65.6105C98.671 65.6105 101.561 65.4014 101.827 62.5512C102.092 59.7011 102.128 53.1163 102.128 53.1163L96.9786 50.3867L91.0692 54.5675L89.5215 57.888L91.4832 65.124V68.8707L98.3695 69.5099Z" fill="#E5BAAB"/>
<path d="M101.771 57.5098C101.792 57.4897 101.771 57.3972 101.643 57.2887C101.488 57.1505 101.294 57.0658 101.087 57.047C100.881 57.0281 100.674 57.0762 100.497 57.1841C100.364 57.2686 100.312 57.353 100.332 57.3771C100.352 57.4012 100.674 57.2444 101.064 57.2846C101.114 57.2884 101.164 57.2965 101.213 57.3088C101.156 57.3385 101.109 57.3826 101.075 57.4365C101.041 57.4905 101.022 57.5524 101.02 57.616C101.018 57.6797 101.032 57.7428 101.062 57.7989C101.092 57.8551 101.137 57.9024 101.191 57.936C101.245 57.9696 101.307 57.9883 101.37 57.9903C101.434 57.9923 101.497 57.9774 101.553 57.9472C101.609 57.917 101.656 57.8726 101.69 57.8184C101.723 57.7641 101.742 57.7021 101.743 57.6384C101.751 57.5959 101.751 57.5523 101.743 57.5098C101.743 57.5098 101.759 57.5218 101.771 57.5098Z" fill="#263238"/>
<path d="M97.4061 57.3724C97.4302 57.3523 97.4061 57.2558 97.2815 57.1513C97.1277 57.012 96.9332 56.926 96.7267 56.9061C96.519 56.888 96.3108 56.9358 96.1318 57.0427C96.0031 57.1272 95.9509 57.2116 95.971 57.2357C95.9911 57.2598 96.3087 57.1071 96.7026 57.1432C96.7665 57.1503 96.8296 57.1624 96.8916 57.1794C96.842 57.2029 96.7985 57.2372 96.7642 57.2799C96.7299 57.3226 96.7057 57.3726 96.6936 57.426C96.6814 57.4794 96.6815 57.5348 96.6938 57.5882C96.7062 57.6416 96.7305 57.6914 96.765 57.734C96.7994 57.7766 96.8431 57.8108 96.8927 57.8341C96.9423 57.8573 96.9965 57.869 97.0513 57.8682C97.106 57.8675 97.1599 57.8543 97.2089 57.8297C97.2578 57.8051 97.3005 57.7697 97.3338 57.7261C97.3697 57.6753 97.392 57.616 97.3983 57.554C97.4046 57.492 97.3949 57.4295 97.3699 57.3724H97.4061Z" fill="#263238"/>
<path d="M98.7188 60.7373C98.9313 60.6915 99.1486 60.6713 99.366 60.677C99.4665 60.677 99.567 60.677 99.5871 60.5926C99.6052 60.4834 99.5898 60.3712 99.5429 60.271C99.4665 60.0137 99.3861 59.7363 99.2976 59.467C99.069 58.7652 98.8916 58.0478 98.767 57.3203C98.8676 57.5131 98.9458 57.7168 99.0001 57.9273C99.1248 58.3092 99.2856 58.8359 99.4544 59.4228L99.6835 60.2268C99.7369 60.354 99.7468 60.4953 99.7117 60.6288C99.6958 60.6636 99.6718 60.6942 99.6418 60.718C99.6117 60.7418 99.5764 60.758 99.5388 60.7654C99.4816 60.7752 99.4232 60.7752 99.366 60.7654C99.1499 60.7838 98.9324 60.7743 98.7188 60.7373Z" fill="#263238"/>
<path d="M97.4083 61.0703C97.7258 61.1869 98.4856 61.7577 99.2896 61.7859C99.1399 61.9811 98.9282 62.1197 98.6894 62.1788C98.4505 62.238 98.1986 62.2143 97.9751 62.1115C97.147 61.7296 97.4083 61.0703 97.4083 61.0703Z" fill="#EFEDE9"/>
<path d="M98.6702 65.6176C97.3167 65.5176 96.0198 65.0337 94.9316 64.2227C94.9316 64.2227 95.7356 66.3452 98.5858 66.3171L98.6702 65.6176Z" fill="#D78776"/>
<path d="M104.049 48.8641C103.838 48.6648 103.58 48.5215 103.299 48.4471C103.019 48.3726 102.724 48.3695 102.441 48.438C101.88 48.5794 101.332 48.7663 100.801 48.9968C100.266 49.2253 99.6674 49.2609 99.1087 49.0973C98.365 48.8159 97.955 48.0239 97.3158 47.5536C97.0338 47.3478 96.71 47.2068 96.3672 47.1407C96.0245 47.0745 95.6714 47.0848 95.3332 47.1708C94.9949 47.2568 94.6798 47.4164 94.4103 47.6382C94.1408 47.8601 93.9236 48.1386 93.7742 48.4541C93.4526 49.1334 93.3722 50.0621 92.7129 50.3716C92.1702 50.6329 91.539 50.3716 90.9642 50.1827C90.4345 49.9978 89.8611 49.9782 89.32 50.1264C89.0515 50.2079 88.8121 50.365 88.6303 50.5788C88.4486 50.7926 88.3321 51.0542 88.2949 51.3324C88.2627 51.8389 88.5683 52.3213 88.5522 52.8318C88.5281 53.6077 87.7964 54.1504 87.1291 54.5444C86.4618 54.9383 85.71 55.4127 85.5774 56.1765C85.5541 56.5048 85.6106 56.834 85.7423 57.1357C85.8739 57.4374 86.0766 57.7028 86.3331 57.9091C86.8459 58.3188 87.337 58.7549 87.8045 59.2156C88.2266 59.7141 88.4798 60.4497 88.1743 61.0326C88.0175 61.3221 87.7361 61.5512 87.6718 61.8728C87.5592 62.4155 88.0738 62.8537 88.5683 63.1271C89.0557 63.444 89.603 63.6575 90.1763 63.7542C90.4049 63.7797 90.6362 63.7647 90.8597 63.71C91.2617 64.8557 91.4908 65.8205 91.4908 65.8205C91.9692 66.5963 91.9692 64.0637 91.9692 64.0637C91.9692 64.0637 92.2023 61.6196 91.8124 60.6909C91.8124 60.6909 90.3652 61.2537 89.8828 58.6206C89.6416 57.3222 91.5873 56.5825 92.2144 58.1342L93.4526 58.1784C93.4526 58.1784 93.3078 53.1012 96.1701 53.9775C101.219 55.5252 103.925 53.8971 104.274 49.7967C104.314 49.6346 104.314 49.4654 104.275 49.3032C104.236 49.141 104.158 48.9905 104.049 48.8641Z" fill="#263238"/>
<path d="M91.7085 59.8954C91.7085 59.8954 91.6683 59.9275 91.6 59.9677C91.5012 60.0165 91.3874 60.0252 91.2824 59.9919C91.1203 59.9016 90.985 59.7699 90.8904 59.6103C90.7958 59.4507 90.7451 59.2689 90.7437 59.0833C90.7237 58.8749 90.7512 58.6646 90.8241 58.4683C90.842 58.3909 90.8784 58.319 90.9302 58.2587C90.982 58.1985 91.0477 58.1518 91.1216 58.1226C91.1695 58.1068 91.2213 58.1083 91.2683 58.1266C91.3152 58.1449 91.3543 58.179 91.3789 58.2231C91.415 58.2914 91.403 58.3396 91.415 58.3437C91.4271 58.3477 91.4673 58.2994 91.4392 58.1989C91.4224 58.1399 91.3854 58.0887 91.3346 58.0542C91.3003 58.0309 91.2616 58.0146 91.2209 58.0063C91.1802 57.998 91.1382 57.9979 91.0975 58.006C91.0021 58.0338 90.9152 58.0852 90.8449 58.1555C90.7747 58.2257 90.7233 58.3126 90.6955 58.408C90.605 58.6252 90.5678 58.8609 90.5869 59.0954C90.5886 59.3127 90.6544 59.5247 90.7759 59.7049C90.8975 59.8851 91.0694 60.0255 91.2703 60.1084C91.3394 60.1281 91.4123 60.1303 91.4825 60.1149C91.5526 60.0994 91.6179 60.0668 91.6723 60.02C91.7085 59.9396 91.7206 59.8954 91.7085 59.8954Z" fill="#D78776"/>
<path d="M104.13 104.609L95.2014 103.926L81.666 102.828L83.1775 175.522L94.928 175.369C94.928 175.369 94.928 174.565 94.8999 173.142L101.802 175.023C101.802 175.023 108.516 152.346 110.803 143.04C112.7 135.274 104.13 104.609 104.13 104.609ZM94.7752 161.838C94.5943 145.058 94.3531 118.229 94.5984 114.739C94.5984 114.739 101.179 138.156 101.239 140.138C101.28 141.344 97.6335 152.937 94.7752 161.838Z" fill="#263238"/>
<path opacity="0.2" d="M94.7734 161.834L94.8981 173.134L96.7955 173.657L96.3372 156.934L94.7734 161.834Z" fill="black"/>
<path d="M94.4502 114.664C94.414 114.644 94.7235 114.17 94.9848 113.313C95.3007 112.19 95.443 111.026 95.4069 109.86C95.4069 108.493 95.3064 107.243 95.3386 106.335C95.3426 105.977 95.3654 105.62 95.4069 105.265C95.4111 105.128 95.4369 104.992 95.4833 104.863C95.5195 104.863 95.4833 105.422 95.4833 106.319C95.4833 107.215 95.6079 108.457 95.624 109.844C95.6614 111.033 95.4927 112.219 95.1255 113.35C95.0065 113.69 94.853 114.017 94.6672 114.326C94.6143 114.45 94.5409 114.564 94.4502 114.664Z" fill="#455A64"/>
<path d="M93.2078 105.464C93.2078 105.464 93.252 105.391 93.3806 105.339C93.5697 105.267 93.7785 105.267 93.9676 105.339C94.1153 105.386 94.2463 105.475 94.3447 105.595C94.4432 105.714 94.5048 105.86 94.5223 106.014C94.5555 106.206 94.5248 106.404 94.4348 106.576C94.3447 106.749 94.2004 106.887 94.0241 106.97C93.8478 107.053 93.6491 107.075 93.4588 107.034C93.2684 106.993 93.0969 106.89 92.9706 106.742C92.8628 106.629 92.7902 106.487 92.7616 106.334C92.7331 106.18 92.7498 106.022 92.8098 105.878C92.8789 105.689 93.0128 105.531 93.1877 105.431C93.3123 105.367 93.3927 105.367 93.3967 105.383C93.1951 105.511 93.0433 105.704 92.9666 105.93C92.9298 106.044 92.925 106.166 92.9526 106.283C92.9802 106.4 93.0393 106.507 93.1234 106.593C93.2185 106.713 93.3511 106.797 93.4999 106.833C93.6486 106.868 93.805 106.853 93.9439 106.789C94.0829 106.725 94.1964 106.616 94.2663 106.48C94.3361 106.344 94.3584 106.189 94.3294 106.038C94.317 105.92 94.2732 105.807 94.2025 105.71C94.1319 105.614 94.0369 105.539 93.9274 105.492C93.6978 105.4 93.4438 105.39 93.2078 105.464Z" fill="#455A64"/>
<path d="M104.987 108.201C104.743 108.383 104.454 108.496 104.151 108.527C103.423 108.661 102.672 108.532 102.03 108.164C101.388 107.796 100.897 107.213 100.645 106.517C100.519 106.242 100.471 105.938 100.505 105.637C100.545 105.637 100.581 105.97 100.798 106.441C101.083 107.07 101.553 107.597 102.145 107.952C102.749 108.288 103.443 108.428 104.131 108.354C104.661 108.306 104.971 108.165 104.987 108.201Z" fill="#455A64"/>
<path d="M86.7138 103.832C86.7138 103.832 86.7781 103.937 86.8304 104.142C86.9011 104.432 86.9322 104.731 86.9229 105.03C86.9105 106.037 86.5059 107 85.7951 107.714C85.0842 108.428 84.1232 108.836 83.1159 108.853C82.8159 108.863 82.5158 108.833 82.2235 108.765C82.1153 108.747 82.0114 108.709 81.918 108.652C82.319 108.686 82.7216 108.698 83.124 108.688C84.0767 108.632 84.9753 108.227 85.6491 107.551C86.3228 106.875 86.7246 105.975 86.7782 105.022C86.7813 104.624 86.7598 104.227 86.7138 103.832Z" fill="#455A64"/>
<path d="M94.9923 172.605C94.9923 172.669 92.3632 172.721 89.1231 172.721C85.883 172.721 83.2539 172.669 83.2539 172.605C83.2539 172.541 85.879 172.488 89.1231 172.488C92.3672 172.488 94.9923 172.541 94.9923 172.605Z" fill="#455A64"/>
<path d="M84.7919 172.777C84.7276 172.777 84.5427 158.442 84.3899 140.758C84.2372 123.074 84.1527 108.738 84.2171 108.738C84.2814 108.738 84.4623 123.07 84.6191 140.758C84.7758 158.446 84.8562 172.777 84.7919 172.777Z" fill="#455A64"/>
<path d="M95.1484 164.679C95.154 164.632 95.1648 164.586 95.1806 164.542L95.2891 164.14C95.3976 163.786 95.5464 163.284 95.7353 162.648C96.1373 161.342 96.7162 159.477 97.4237 157.177C98.1312 154.878 98.9996 152.12 99.9523 149.073C100.431 147.549 100.933 145.949 101.452 144.289L102.256 141.76C102.38 141.334 102.545 140.892 102.658 140.474C102.645 140.031 102.587 139.591 102.485 139.16C102.083 137.363 101.613 135.626 101.15 133.954C100.688 132.281 100.21 130.669 99.7553 129.13C98.8468 126.062 98.0026 123.313 97.2951 121.001C96.5876 118.69 96.0127 116.836 95.6067 115.53C95.4137 114.895 95.265 114.396 95.1564 114.043L95.0439 113.641C95.0281 113.596 95.0174 113.551 95.0117 113.504C95.0325 113.545 95.05 113.588 95.064 113.633C95.1002 113.729 95.1444 113.858 95.2007 114.014C95.3172 114.368 95.4821 114.863 95.6951 115.49C96.0971 116.792 96.7122 118.65 97.4519 120.941C98.1915 123.232 99.0599 125.994 99.9603 129.053C100.419 130.585 100.897 132.193 101.367 133.877C101.838 135.562 102.324 137.286 102.71 139.103C102.758 139.332 102.802 139.558 102.835 139.787C102.858 139.902 102.872 140.019 102.879 140.136C102.895 140.259 102.895 140.384 102.879 140.506C102.77 140.973 102.614 141.383 102.477 141.817L101.673 144.345C101.146 146.002 100.64 147.602 100.157 149.125L97.5805 157.217C96.8408 159.509 96.2418 161.366 95.8238 162.669L95.3333 164.148C95.2811 164.305 95.2368 164.429 95.2007 164.53C95.1878 164.581 95.1703 164.631 95.1484 164.679Z" fill="#455A64"/>
<path d="M94.8926 169.996C95.2599 170.078 95.6191 170.192 95.9659 170.338L98.6553 171.278L101.345 172.215C101.725 172.326 102.094 172.473 102.446 172.653C102.055 172.598 101.669 172.504 101.296 172.372C100.593 172.171 99.6322 171.865 98.5789 171.5C97.5257 171.134 96.5689 170.772 95.9096 170.495C95.5497 170.375 95.2075 170.207 94.8926 169.996Z" fill="#455A64"/>
<path d="M88.7803 136.557C88.8305 136.501 88.8904 136.453 88.9572 136.417C89.1409 136.3 89.3436 136.215 89.5562 136.168C89.897 136.088 90.2526 136.096 90.5893 136.192C91.0396 136.328 91.4315 136.611 91.7029 136.996C92.0172 137.471 92.172 138.034 92.1451 138.604C92.1451 139.199 92.1089 139.81 92.0888 140.477C92.0856 141.172 92.0292 141.865 91.9199 142.551C91.8549 142.924 91.7184 143.28 91.5179 143.601C91.2927 143.937 90.9572 144.184 90.5692 144.3C90.1877 144.39 89.7894 144.379 89.4132 144.27C89.0369 144.16 88.6956 143.954 88.4225 143.673C87.9353 143.146 87.6247 142.48 87.5341 141.767C87.3828 140.594 87.4731 139.403 87.7994 138.266C87.9053 137.823 88.0745 137.398 88.3019 137.004C88.4807 136.699 88.7547 136.462 89.0818 136.328C89.2879 136.243 89.5148 136.222 89.7331 136.268C89.8083 136.28 89.8798 136.309 89.9421 136.352C89.6686 136.278 89.3778 136.299 89.118 136.413C88.8178 136.55 88.5707 136.781 88.4145 137.072C88.2068 137.461 88.0526 137.876 87.9562 138.306C87.664 139.425 87.593 140.59 87.7472 141.735C87.836 142.399 88.1265 143.019 88.5793 143.512C88.8254 143.763 89.1316 143.946 89.4687 144.045C89.8058 144.143 90.1626 144.154 90.5049 144.075C90.8355 143.973 91.1199 143.758 91.3089 143.468C91.5062 143.176 91.6429 142.848 91.7109 142.503C91.8173 141.829 91.8751 141.148 91.8838 140.465C91.9119 139.81 91.9601 139.179 91.9642 138.604C91.9967 138.076 91.8631 137.552 91.5823 137.104C91.3338 136.746 90.9754 136.477 90.5612 136.34C90.2471 136.239 89.9125 136.218 89.5883 136.28C89.3066 136.331 89.0342 136.425 88.7803 136.557Z" fill="#455A64"/>
<path d="M105.651 139.921C104.925 140.093 104.182 140.189 103.436 140.207C102.696 140.301 101.948 140.317 101.205 140.255C101.932 140.085 102.674 139.991 103.42 139.974C104.16 139.879 104.908 139.862 105.651 139.921Z" fill="#455A64"/>
<path d="M104.883 141.238C103.736 141.071 102.618 140.748 101.559 140.277C102.138 140.326 102.708 140.451 103.255 140.647C103.821 140.772 104.369 140.97 104.883 141.238Z" fill="#455A64"/>
<path d="M110.245 137.592C110.311 137.613 110.372 137.646 110.426 137.688C110.588 137.805 110.719 137.96 110.808 138.138C111.073 138.597 111.138 139.364 111.122 140.265C111.146 141.339 110.953 142.407 110.555 143.404C110.301 143.999 109.921 144.531 109.441 144.964C109.189 145.206 108.885 145.388 108.553 145.495C108.368 145.541 108.175 145.541 107.99 145.495C107.8 145.444 107.631 145.334 107.508 145.181C107.298 144.887 107.166 144.544 107.126 144.184C107.062 143.855 107.018 143.522 106.993 143.187C106.952 142.555 106.979 141.92 107.073 141.294C107.235 140.233 107.598 139.212 108.143 138.287C108.342 137.914 108.643 137.606 109.011 137.399C109.155 137.325 109.313 137.283 109.474 137.275C109.636 137.267 109.797 137.292 109.948 137.35C110.143 137.424 110.303 137.567 110.398 137.752C110.432 137.814 110.451 137.883 110.454 137.953C110.454 137.953 110.426 137.885 110.358 137.776C110.251 137.624 110.097 137.511 109.92 137.455C109.781 137.407 109.634 137.389 109.487 137.402C109.341 137.415 109.199 137.459 109.071 137.531C108.729 137.736 108.45 138.032 108.267 138.387C107.756 139.303 107.418 140.304 107.27 141.342C107.184 141.953 107.162 142.572 107.206 143.187C107.232 143.512 107.275 143.836 107.335 144.156C107.372 144.477 107.488 144.783 107.672 145.049C107.768 145.163 107.896 145.246 108.04 145.286C108.183 145.325 108.336 145.32 108.476 145.27C108.778 145.175 109.053 145.011 109.28 144.791C109.733 144.38 110.094 143.877 110.338 143.316C110.731 142.345 110.933 141.308 110.933 140.261C111.014 139.558 110.936 138.846 110.704 138.178C110.595 137.952 110.439 137.752 110.245 137.592Z" fill="#455A64"/>
<path d="M116.957 64.3517L119.638 75.9815L125.914 74.6268L123.719 62.6914L116.957 64.3517Z" fill="#263238"/>
<path d="M117.701 64.9533L119.755 74.2636L125.198 72.9209L123.253 63.5664L117.701 64.9533Z" fill="white"/>
<path d="M123.273 74.3757C123.274 74.4905 123.24 74.603 123.177 74.6988C123.114 74.7946 123.023 74.8694 122.917 74.9137C122.812 74.958 122.695 74.9698 122.582 74.9476C122.47 74.9254 122.366 74.8702 122.285 74.789C122.204 74.7078 122.148 74.6043 122.126 74.4916C122.104 74.3789 122.116 74.2622 122.16 74.1563C122.204 74.0503 122.279 73.96 122.375 73.8967C122.471 73.8334 122.583 73.8 122.698 73.8008C122.851 73.8008 122.997 73.8614 123.105 73.9692C123.212 74.077 123.273 74.2232 123.273 74.3757Z" fill="#455A64"/>
<path d="M121.602 63.6836L119.113 64.2424L119.121 64.2786L121.61 63.7198L121.602 63.6836Z" fill="#455A64"/>
<path d="M122.961 64.3756L118.164 65.4531L119.024 69.2813L123.821 68.2037L122.961 64.3756Z" fill="#F0F0F0"/>
<path d="M119.156 69.7175L119.522 71.0803L124.229 70.0029L123.896 68.5195L119.156 69.7175Z" fill="#E0E0E0"/>
<path d="M119.678 71.6044L120.108 73.6747L124.759 72.5129L124.313 70.5391L119.678 71.6044Z" fill="#EBEBEB"/>
<path d="M85.1423 84.8789C85.0137 85.5824 84.8247 86.6437 84.5996 87.8899C87.3453 88.0065 90.6296 88.1512 94.2034 88.316C97.954 88.4929 101.439 88.6617 104.253 88.8064L104.225 85.7633C101.411 85.6467 98.0184 85.498 94.3401 85.3251C90.9472 85.1683 87.8035 85.0156 85.1423 84.8789Z" fill="#3DA5D9"/>
<path d="M81.2658 71.7461C80.7294 72.7222 80.2658 73.7367 79.8789 74.7812C82.8738 74.8857 88.4335 75.1189 94.8011 75.4164C100.461 75.6777 105.49 75.9309 108.634 76.1038C108.214 75.0232 107.722 73.9717 107.163 72.9561C104.039 72.8355 99.7136 72.6466 94.9378 72.4255C89.3701 72.1682 84.4215 71.919 81.2658 71.7461Z" fill="#3DA5D9"/>
<path d="M98.3965 69.082C98.193 69.3452 97.9611 69.5852 97.7051 69.7976C99.8518 69.8981 101.866 69.9946 103.675 70.087C101.964 69.5334 100.191 69.1957 98.3965 69.082Z" fill="#3DA5D9"/>
<path d="M89.0332 104.078L104.422 106.49V104.749C101.435 104.625 97.5878 104.46 93.423 104.263L89.0332 104.078Z" fill="#3DA5D9"/>
<path d="M104.849 87.3536L106.019 85.8341L104.242 85.7617L104.849 87.3536Z" fill="#3DA5D9"/>
<path d="M82.7382 97.6836C82.493 98.7891 82.2518 99.8464 82.0508 100.707C85.11 100.827 89.1581 101.004 93.6043 101.213C97.6805 101.402 101.423 101.583 104.378 101.736L104.35 98.6886C101.423 98.568 97.7408 98.4072 93.745 98.2223C89.5601 98.0173 85.721 97.8323 82.7382 97.6836Z" fill="#3DA5D9"/>
<path d="M82.0107 100.867C81.7454 101.985 81.5645 102.724 81.5645 102.724L87.1925 103.774C89.118 103.858 91.2125 103.951 93.4034 104.055C97.5801 104.248 101.407 104.433 104.394 104.59L104.366 101.912C101.411 101.788 97.6646 101.627 93.5802 101.434C89.1341 101.229 85.0699 101.028 82.0107 100.867Z" fill="#3DA5D9"/>
<path d="M83.4145 94.4688C83.2255 95.4295 83.0125 96.4787 82.7793 97.4878C85.7621 97.6084 89.5852 97.7772 93.7539 97.9702C97.7498 98.1551 101.424 98.336 104.347 98.4847L104.318 95.4376C101.42 95.317 97.8101 95.1602 93.8946 94.9793C89.9791 94.7984 86.3209 94.6295 83.4145 94.4688Z" fill="#3DA5D9"/>
<path d="M78.8277 78.0664C78.486 79.3166 78.2488 80.398 78.084 81.202C80.3513 81.2623 86.8355 81.5276 94.4856 81.8854C100.27 82.1507 105.384 82.408 108.515 82.5849L110.123 80.4704C110.123 80.4704 110.019 80.1126 109.834 79.5377C106.919 79.4372 101.195 79.196 94.6102 78.8905C87.5672 78.5448 81.4929 78.2352 78.8277 78.0664Z" fill="#3DA5D9"/>
<path d="M78.0834 81.2578C77.9587 81.9131 77.8984 82.307 77.8984 82.307L85.3194 83.9874C85.3194 83.9874 85.2751 84.2406 85.1947 84.6828C87.856 84.7954 90.9996 84.9321 94.3724 85.0848C98.9351 85.2979 103.08 85.4868 106.163 85.6637L108.45 82.6929C105.307 82.5764 100.234 82.3593 94.5131 82.094C86.8309 81.7442 80.3386 81.4106 78.0834 81.2578Z" fill="#3DA5D9"/>
<path d="M84.568 88.0781C84.3991 89.0108 84.2182 90.0399 84.0293 91.0931C86.8433 91.2097 90.3166 91.3625 94.0552 91.5353C97.8862 91.7122 101.424 91.8851 104.286 92.0338L104.258 88.9907C101.424 88.8741 97.9506 88.7173 94.2079 88.5444C90.6261 88.3796 87.3297 88.2188 84.568 88.0781Z" fill="#3DA5D9"/>
<path d="M79.8384 74.8984C79.4364 75.9557 79.1229 77.0089 78.8535 77.9818C81.5349 78.0622 87.597 78.3154 94.6521 78.6451C101.209 78.9466 106.909 79.236 109.828 79.4089C109.57 78.6049 109.176 77.4592 108.694 76.2492C105.55 76.1326 100.493 75.9155 94.7928 75.6542C88.397 75.3567 82.8213 75.0753 79.8384 74.8984Z" fill="#3DA5D9"/>
<path d="M83.9959 91.2734C83.8834 91.9006 83.7708 92.5317 83.6623 93.1508C83.598 93.5126 83.5256 93.8945 83.4492 94.2925C86.3517 94.4131 89.9737 94.5739 93.9012 94.7548C97.8288 94.9357 101.423 95.1125 104.317 95.2613L104.289 92.2181C101.419 92.0975 97.877 91.9408 94.0419 91.7639C90.2913 91.591 86.826 91.4222 83.9959 91.2734Z" fill="#3DA5D9"/>
<path d="M93.0348 69.5798C92.457 69.1914 91.9256 68.7382 91.4509 68.2291C91.4509 68.2291 87.5354 66.5125 84.4762 68.1728C83.9995 68.4372 83.5624 68.7674 83.1777 69.1537C85.8108 69.2582 89.2319 69.4029 93.0348 69.5798Z" fill="#3DA5D9"/>
<path d="M83.0201 69.3125C82.3669 70.0055 81.8037 70.7781 81.3438 71.6119C84.5035 71.7325 89.424 71.9416 94.9515 72.1989C99.6749 72.4159 103.948 72.629 107.068 72.7938C106.734 72.1687 106.288 71.6101 105.753 71.1456C105.292 70.8083 104.791 70.5289 104.262 70.3135C102.228 70.2291 99.9041 70.1286 97.4278 70.016C96.065 70.9205 94.5897 70.4944 93.444 69.8311C89.3958 69.6381 85.7657 69.4612 83.0201 69.3125Z" fill="#3DA5D9"/>
<path d="M81.344 71.6055C81.3161 71.651 81.2906 71.698 81.2676 71.7462C84.4233 71.919 89.3719 72.1683 94.9356 72.4255C99.7113 72.6466 104.037 72.8275 107.16 72.9562L107.064 72.7873C103.944 72.6225 99.6711 72.4095 94.9476 72.1924C89.4242 71.9552 84.5157 71.7261 81.344 71.6055Z" fill="#263238"/>
<path d="M103.675 70.0824C101.866 69.9899 99.8521 69.8935 97.7055 69.793C97.609 69.868 97.5125 69.9404 97.416 70.0101C99.9044 70.1226 102.24 70.2231 104.25 70.3075C104.069 70.2271 103.872 70.1548 103.675 70.0824Z" fill="#263238"/>
<path d="M83.1763 69.1445C83.12 69.1928 83.0718 69.2491 83.0195 69.3013C85.7652 69.4501 89.3952 69.6269 93.4313 69.8199C93.2947 69.7395 93.162 69.6551 93.0293 69.5707C89.2304 69.4018 85.8094 69.2571 83.1763 69.1445Z" fill="#263238"/>
<path d="M79.8821 74.7734C79.8698 74.8119 79.855 74.8495 79.8379 74.886C82.8207 75.0629 88.3965 75.3443 94.7923 75.6418C100.493 75.9031 105.55 76.1201 108.693 76.2367C108.693 76.1925 108.657 76.1443 108.637 76.096C105.494 75.9232 100.465 75.6699 94.8043 75.4086C88.4367 75.1232 82.877 74.89 79.8821 74.7734Z" fill="#263238"/>
<path d="M78.8503 77.9844L78.8262 78.0728C81.4914 78.2417 87.5656 78.5512 94.6409 78.8768C101.226 79.1823 106.95 79.4235 109.865 79.524C109.865 79.4879 109.84 79.4517 109.824 79.4115C106.906 79.2386 101.206 78.9492 94.6489 78.6477C87.5938 78.31 81.5316 78.0567 78.8503 77.9844Z" fill="#263238"/>
<path d="M78.084 81.2031C78.0859 81.2272 78.0859 81.2514 78.084 81.2755C80.3392 81.4282 86.8315 81.7619 94.4936 82.1157C100.214 82.381 105.287 82.5981 108.431 82.7146L108.531 82.586C105.4 82.4091 100.286 82.1518 94.5017 81.8865C86.8516 81.5086 80.3673 81.2433 78.084 81.2031Z" fill="#263238"/>
<path d="M85.1747 84.6836C85.1747 84.7439 85.1747 84.8082 85.1426 84.8766C87.8038 85.0132 90.9595 85.166 94.3403 85.3228C98.0186 85.4956 101.424 85.6444 104.226 85.761L106.002 85.8333L106.127 85.6685C103.044 85.5077 98.891 85.3027 94.3363 85.0896C90.9796 84.9328 87.836 84.7962 85.1747 84.6836Z" fill="#263238"/>
<path d="M84.5986 87.8867C84.5986 87.951 84.5785 88.0154 84.5664 88.0797C87.3161 88.2204 90.6245 88.3812 94.1903 88.546C97.949 88.7189 101.426 88.8756 104.24 88.9922V88.8033C101.426 88.6586 97.9409 88.4897 94.1903 88.3128C90.6487 88.148 87.3281 88.0033 84.5986 87.8867Z" fill="#263238"/>
<path d="M84.0282 91.0938C84.0282 91.154 84.0283 91.2184 83.9961 91.2787C86.8101 91.4274 90.2914 91.5962 94.0461 91.7691C97.8812 91.946 101.423 92.1028 104.293 92.2234V92.0344C101.431 91.8857 97.8932 91.7128 94.0622 91.5359C90.3155 91.3631 86.8543 91.2103 84.0282 91.0938Z" fill="#263238"/>
<path d="M83.4522 94.3008L83.416 94.4857C86.3225 94.6344 89.9525 94.8113 93.8962 94.9962C97.8398 95.1812 101.422 95.3339 104.32 95.4545V95.2776C101.426 95.1289 97.8197 94.952 93.9042 94.7711C89.9887 94.5902 86.3546 94.4214 83.4522 94.3008Z" fill="#263238"/>
<path d="M82.7824 97.5039C82.7824 97.5602 82.7542 97.6205 82.7422 97.6808C85.729 97.8376 89.5762 98.0225 93.7489 98.2195C97.7448 98.4044 101.427 98.5652 104.354 98.6858V98.4928C101.431 98.3441 97.7569 98.1632 93.761 97.9783C89.5882 97.7933 85.7652 97.6245 82.7824 97.5039Z" fill="#263238"/>
<path d="M82.0519 100.699C82.0519 100.755 82.0238 100.812 82.0117 100.868C85.0709 101.029 89.1352 101.23 93.5933 101.435C97.6777 101.628 101.424 101.789 104.379 101.913V101.732C101.424 101.58 97.6817 101.399 93.6054 101.21C89.1593 100.997 85.1111 100.82 82.0519 100.699Z" fill="#263238"/>
<path d="M87.2051 103.777L88.789 104.071H89.0342L93.4079 104.276C97.5847 104.473 101.42 104.638 104.407 104.762H104.431V104.581C101.444 104.425 97.5968 104.24 93.4401 104.047C91.2251 103.954 89.1307 103.862 87.2051 103.777Z" fill="#263238"/>
<path d="M104.344 88.7098C104.279 88.7098 104.002 86.3782 103.725 83.4838C103.447 80.5894 103.274 78.2578 103.323 78.2578C103.371 78.2578 103.664 80.5894 103.942 83.4838C104.219 86.3782 104.408 88.7018 104.344 88.7098Z" fill="#263238"/>
<path d="M104.081 77.124C104.134 77.1602 103.961 77.5059 103.679 77.8999C103.398 78.2938 103.153 78.5873 103.096 78.5511C103.04 78.5149 103.217 78.1491 103.498 77.7712C103.78 77.3933 104.029 77.0878 104.081 77.124Z" fill="#263238"/>
<path d="M100.418 89.6502C100.45 89.7065 97.6358 91.2582 94.1304 93.1034C90.625 94.9486 87.7627 96.4038 87.7346 96.3476C87.7064 96.2913 90.5204 94.7396 94.0219 92.8984C97.5233 91.0572 100.39 89.5899 100.418 89.6502Z" fill="#263238"/>
<path d="M101.1 92.4102C100.661 92.54 100.214 92.6367 99.7611 92.6996L96.5451 93.3066L93.3291 93.9619C92.8873 94.078 92.437 94.1586 91.9824 94.2031C92.4049 94.026 92.8439 93.8913 93.2929 93.8011C94.0969 93.588 95.2467 93.3227 96.5089 93.0735C97.7712 92.8242 98.9209 92.6433 99.7651 92.5308C100.206 92.4515 100.652 92.4112 101.1 92.4102Z" fill="#263238"/>
<path d="M85.6863 80.1133C85.7309 80.4576 85.7309 80.8062 85.6863 81.1504C85.6622 81.7896 85.5939 82.67 85.4692 83.6388C85.3446 84.6076 85.1798 85.48 85.0431 86.1071C84.9882 86.4492 84.8938 86.7837 84.7617 87.1041C84.762 86.7575 84.8025 86.4122 84.8823 86.0749C84.9788 85.4438 85.1115 84.5755 85.2361 83.6107C85.3607 82.6459 85.4572 81.7695 85.5215 81.1384C85.541 80.7919 85.5962 80.4484 85.6863 80.1133Z" fill="#263238"/>
<path d="M98.4531 68.9207C98.4087 69.0226 98.3475 69.1163 98.2722 69.1981C98.0921 69.4361 97.8931 69.6592 97.6773 69.8654C97.3563 70.1881 96.9617 70.4281 96.5276 70.5649C95.989 70.7094 95.4219 70.7094 94.8834 70.5649C93.9269 70.2955 93.0407 69.8209 92.2865 69.174C92.0589 68.9801 91.8466 68.7691 91.6513 68.5428C91.5146 68.386 91.4503 68.2855 91.4624 68.2775C91.4744 68.2694 91.796 68.6031 92.383 69.0574C93.1404 69.6544 94.0077 70.0969 94.9356 70.3598C95.439 70.5024 95.9705 70.5135 96.4793 70.392C96.8881 70.2705 97.2645 70.059 97.5808 69.7729C98.1315 69.2624 98.425 68.8966 98.4531 68.9207Z" fill="#263238"/>
<g clip-path="url(#clip0_1746_32773)">
<path fill-rule="evenodd" clip-rule="evenodd" d="M150.094 56.4421V56.4425L148.867 60.9986H144.003L143.995 60.9731C143.842 60.4458 143.357 60.081 142.808 60.081C142.258 60.081 141.773 60.4464 141.62 60.9731L141.612 60.9986H140.432L141.979 55.2539H150.414L150.094 56.4421ZM150.647 56.8497L149.529 60.9986H150.381L150.389 60.9731C150.542 60.4459 151.027 60.081 151.577 60.081C152.127 60.081 152.612 60.4463 152.765 60.9731L152.772 60.9986H153.655L154.331 58.4912L153.131 56.8497H150.647Z" fill="#FBB64D"/>
<path fill-rule="evenodd" clip-rule="evenodd" d="M139.745 59.1543C139.745 59.3503 139.586 59.5093 139.39 59.5093H137.209C137.013 59.5093 136.854 59.3503 136.854 59.1543C136.854 58.9579 137.013 58.7992 137.209 58.7992H139.39C139.437 58.7992 139.483 58.8084 139.526 58.8262C139.569 58.8441 139.608 58.8702 139.641 58.9032C139.674 58.9362 139.7 58.9753 139.718 59.0184C139.736 59.0615 139.745 59.1077 139.745 59.1543ZM137.359 57.2701C137.359 57.0742 137.517 56.9151 137.714 56.9151H139.895C140.091 56.9151 140.25 57.0742 140.25 57.2701C140.25 57.4665 140.091 57.6253 139.895 57.6253H137.714C137.667 57.6253 137.621 57.6162 137.578 57.5983C137.535 57.5805 137.495 57.5543 137.462 57.5213C137.429 57.4884 137.403 57.4492 137.386 57.4061C137.368 57.363 137.359 57.3168 137.359 57.2701ZM137.863 55.3864C137.863 55.1904 138.022 55.0313 138.218 55.0313H140.4C140.596 55.0313 140.755 55.1904 140.755 55.3864C140.755 55.5823 140.596 55.7415 140.4 55.7415H138.218C138.022 55.7415 137.863 55.5824 137.863 55.3864ZM153.628 60.966H152.8C152.645 60.4365 152.156 60.0484 151.577 60.0484C150.999 60.0484 150.509 60.4365 150.355 60.966H149.576L150.674 56.8881H153.114L154.292 58.5013L153.628 60.966ZM151.577 61.8835C151.888 61.8835 152.14 61.6314 152.14 61.3211C152.14 61.0108 151.888 60.7586 151.577 60.7586C151.267 60.7586 151.015 61.0108 151.015 61.3211C151.015 61.6315 151.267 61.8835 151.577 61.8835ZM142.808 60.0484C143.387 60.0484 143.876 60.4365 144.03 60.966H148.84L150.059 56.4407V56.4403L150.369 55.2923H142.007L140.478 60.966H141.586C141.74 60.4365 142.229 60.0484 142.808 60.0484ZM142.808 61.8835C142.498 61.8835 142.245 61.6314 142.245 61.3211C142.245 61.0108 142.498 60.7586 142.808 60.7586C143.118 60.7586 143.371 61.0108 143.371 61.3211C143.371 61.6315 143.118 61.8835 142.808 61.8835ZM154.966 58.2197L153.581 56.3235C153.548 56.2784 153.505 56.2417 153.455 56.2164C153.405 56.1911 153.35 56.1779 153.294 56.1779H150.865L151.175 55.0295C151.203 54.9226 151.181 54.8086 151.114 54.7209C151.081 54.6777 151.038 54.6427 150.989 54.6186C150.94 54.5946 150.886 54.582 150.832 54.582H141.735C141.657 54.582 141.581 54.6077 141.519 54.6551C141.457 54.7026 141.412 54.7691 141.392 54.8445L139.672 61.2287C139.644 61.3353 139.666 61.4493 139.733 61.537C139.766 61.5802 139.809 61.6153 139.858 61.6394C139.907 61.6636 139.96 61.6761 140.015 61.6762H141.586C141.74 62.2057 142.229 62.5938 142.808 62.5938C143.387 62.5938 143.876 62.2057 144.03 61.6762H150.355C150.509 62.2057 150.999 62.5938 151.577 62.5938C152.156 62.5938 152.645 62.2057 152.8 61.6762H153.9C154.061 61.6762 154.201 61.5686 154.243 61.4134L155.022 58.5215C155.05 58.4175 155.03 58.3067 154.966 58.2197Z" fill="#FCCB80"/>
</g>
<defs>
<clipPath id="clip0_1746_32773">
<rect width="18.1809" height="18.1809" fill="white" transform="translate(136.855 49.4961)"/>
</clipPath>
</defs>
</svg>
