<svg width="45" height="42" viewBox="0 0 45 42" fill="none" xmlns="http://www.w3.org/2000/svg">
<rect width="44.9999" height="41.6958" rx="20.8479" fill="#3DA5D9"/>
<path d="M34.5105 10.3962C34.3126 10.2152 34.0701 10.09 33.8079 10.0337C33.5457 9.97737 33.2733 9.99185 33.0185 10.0757L11.0367 17.3218C10.4376 17.5193 10.0314 18.054 10.0017 18.6841C9.97213 19.3141 10.3264 19.8847 10.9042 20.1376L16.3405 22.5161L17.9807 30.1233C18.0488 30.4393 18.2092 30.7208 18.549 30.8073C18.8927 30.8949 19.1355 30.7071 19.392 30.5151L23.4261 27.4943L28.1424 31.3536C28.4171 31.5785 28.7528 31.6958 29.0952 31.6958C29.261 31.6957 29.4258 31.6683 29.5828 31.6149C30.0792 31.4466 30.4471 31.0415 30.5671 30.5313L34.96 11.8544C35.0212 11.5933 35.0119 11.3207 34.9329 11.0644C34.8539 10.8081 34.7081 10.5775 34.5105 10.3962ZM19.7434 23.879C19.7407 23.8854 19.738 23.8925 19.7356 23.9011L18.8262 27.0783L17.8113 22.3715L24.7897 18.4943L19.9108 23.5958C19.8342 23.6763 19.777 23.7732 19.7434 23.879ZM20.032 28.2015L20.8401 25.3781L22.2557 26.5365L20.032 28.2015ZM33.5307 11.5182L29.1378 30.195C29.1357 30.2043 29.1327 30.2171 29.1112 30.2244C29.09 30.2316 29.0796 30.2234 29.0723 30.2173L21.5201 24.0373L29.2019 16.0051C29.3233 15.8782 29.3952 15.7119 29.4044 15.5365C29.4137 15.3611 29.3598 15.1882 29.2525 15.0491C29.1451 14.9101 28.9915 14.8141 28.8194 14.7787C28.6474 14.7433 28.4683 14.7707 28.3148 14.856L16.9402 21.1758L11.4928 18.7924C11.4762 18.7851 11.4671 18.7811 11.4684 18.753C11.4697 18.725 11.4792 18.7218 11.4963 18.7162L33.4782 11.4701C33.4888 11.4666 33.5008 11.4626 33.5185 11.4787C33.5362 11.4949 33.5333 11.5072 33.5307 11.5182Z" fill="white"/>
</svg>
